<svg xmlns="http://www.w3.org/2000/svg" xmlns:xlink="http://www.w3.org/1999/xlink" width="1920" height="1110" viewBox="0 0 1920 1110"><defs><clipPath id="a"><path d="M0,65S584.914,95,960,95s960-30,960-30V1175s-584.91-30-960-30S0,1175,0,1175Z" transform="translate(1118 -421)" fill="#7854f7"/></clipPath></defs><g transform="translate(-1118 356)" clip-path="url(#a)"><path d="M0,65S584.914,95,960,95s960-30,960-30V1175s-584.91-30-960-30S0,1175,0,1175Z" transform="translate(1118 -421)" fill="#7854f7"/><path d="M1319.71,70.905c4.75-6.453,11.87-9.849,21.36-10.528q25.935-2.038,29.5,24.452,15.765,106.468,34.25,180.333l74.25-141.617q10.185-19.357,25.43-20.377c14.92-1.019,24.08,8.49,27.81,28.527,8.48,45.168,19.33,83.544,32.21,116.147q13.23-129.392,44.76-186.785c5.08-9.509,12.54-14.264,22.38-14.943,7.8-.679,14.92,1.7,21.36,6.792a26.624,26.624,0,0,1,10.51,19.358,29.527,29.527,0,0,1-3.39,16.3c-13.22,24.452-24.07,65.545-32.89,122.6-8.48,55.356-11.53,98.487-9.49,129.391q1.005,12.736-4.07,22.415c-4.07,7.471-10.18,11.546-17.97,12.226-8.82.679-17.98-3.4-26.79-12.566q-47.31-48.395-74.94-144.674-33.06,65.205-48.82,97.808c-20.01,38.376-36.96,58.073-51.2,59.092-9.16.679-16.96-7.132-23.74-23.433q-25.935-66.734-55.95-257.764C1313.27,84.829,1314.96,77.018,1319.71,70.905Zm728,53.228c-12.21-21.455-30.2-34.4-54.29-39.5a88.831,88.831,0,0,0-18.33-2.043c-32.57,0-59.04,17.028-79.74,51.084q-26.475,43.42-26.47,96.036,0,39.334,16.29,67.43c12.21,21.455,30.2,34.4,54.29,39.505a88.843,88.843,0,0,0,18.33,2.043c32.91,0,59.38-17.028,79.74-51.083,17.65-29.288,26.47-61.3,26.47-96.378C2064,164.659,2058.57,142.523,2047.71,124.133Zm-42.76,94.334c-4.75,22.477-13.23,39.164-25.79,50.4-9.84,8.855-19,12.6-27.48,10.9-8.15-1.7-14.93-8.855-20.02-22.136a86.537,86.537,0,0,1-6.11-30.991,119.28,119.28,0,0,1,2.37-24.86,110.453,110.453,0,0,1,17.99-40.526c11.2-16.688,23.07-23.5,35.29-21.115,8.14,1.7,14.93,8.855,20.02,22.136a86.754,86.754,0,0,1,6.11,30.991A147.462,147.462,0,0,1,2004.95,218.467ZM1782.03,84.629c23.76,5.108,42.08,18.049,54.3,39.5,10.86,18.39,16.29,40.526,16.29,67.089,0,35.078-8.82,67.09-26.47,96.378-20.36,34.055-46.83,51.083-79.75,51.083a88.825,88.825,0,0,1-18.32-2.043c-24.09-5.109-42.08-18.05-54.3-39.505q-16.275-28.1-16.28-67.43,0-52.615,26.46-96.036c20.7-34.056,47.17-51.084,79.75-51.084A88.665,88.665,0,0,1,1782.03,84.629Zm-14.25,184.24c12.56-11.238,21.04-27.925,25.79-50.4a119.677,119.677,0,0,0,2.38-25.2,86.754,86.754,0,0,0-6.11-30.991c-5.09-13.281-11.88-20.433-20.02-22.136-12.22-2.384-24.09,4.427-35.29,21.115a110.288,110.288,0,0,0-17.99,40.526,119.28,119.28,0,0,0-2.37,24.86,86.733,86.733,0,0,0,6.1,30.991c5.09,13.281,11.88,20.433,20.03,22.136C1748.78,281.47,1757.94,277.724,1767.78,268.869Z" transform="translate(1118 -421)" fill="#fff" fill-rule="evenodd" opacity="0.05"/><circle cx="3.524" cy="3.524" r="3.524" transform="translate(1581.764 492.16) rotate(180)" fill="#70c217"/><circle cx="3.524" cy="3.524" r="3.524" transform="translate(1530.085 492.16) rotate(180)" fill="#70c217"/><circle cx="3.524" cy="3.524" r="3.524" transform="translate(1478.406 492.16) rotate(180)" fill="#70c217"/><circle cx="3.524" cy="3.524" r="3.524" transform="translate(1426.726 492.16) rotate(180)" fill="#70c217"/><circle cx="3.524" cy="3.524" r="3.524" transform="translate(1375.047 492.16) rotate(180)" fill="#70c217"/><circle cx="3.524" cy="3.524" r="3.524" transform="translate(1581.764 440.481) rotate(180)" fill="#70c217"/><circle cx="3.524" cy="3.524" r="3.524" transform="translate(1530.085 440.481) rotate(180)" fill="#70c217"/><circle cx="3.524" cy="3.524" r="3.524" transform="translate(1478.406 440.481) rotate(180)" fill="#70c217"/><circle cx="3.524" cy="3.524" r="3.524" transform="translate(1426.726 440.481) rotate(180)" fill="#70c217"/><circle cx="3.524" cy="3.524" r="3.524" transform="translate(1375.047 440.481) rotate(180)" fill="#70c217"/><circle cx="3.524" cy="3.524" r="3.524" transform="translate(1581.764 388.802) rotate(180)" fill="#70c217"/><circle cx="3.524" cy="3.524" r="3.524" transform="translate(1530.085 388.802) rotate(180)" fill="#70c217"/><circle cx="3.524" cy="3.524" r="3.524" transform="translate(1478.406 388.802) rotate(180)" fill="#70c217"/><circle cx="3.524" cy="3.524" r="3.524" transform="translate(1426.726 388.802) rotate(180)" fill="#70c217"/><circle cx="3.524" cy="3.524" r="3.524" transform="translate(1375.047 388.802) rotate(180)" fill="#70c217"/><circle cx="3.524" cy="3.524" r="3.524" transform="translate(1581.764 337.123) rotate(180)" fill="#70c217"/><circle cx="3.524" cy="3.524" r="3.524" transform="translate(1530.085 337.123) rotate(180)" fill="#70c217"/><circle cx="3.524" cy="3.524" r="3.524" transform="translate(1478.406 337.123) rotate(180)" fill="#70c217"/><circle cx="3.524" cy="3.524" r="3.524" transform="translate(1426.726 337.123) rotate(180)" fill="#70c217"/><circle cx="3.524" cy="3.524" r="3.524" transform="translate(1375.047 337.123) rotate(180)" fill="#70c217"/><circle cx="3.524" cy="3.524" r="3.524" transform="translate(1581.764 285.444) rotate(180)" fill="#70c217"/><circle cx="3.524" cy="3.524" r="3.524" transform="translate(1530.085 285.444) rotate(180)" fill="#70c217"/><circle cx="3.524" cy="3.524" r="3.524" transform="translate(1478.406 285.444) rotate(180)" fill="#70c217"/><circle cx="3.524" cy="3.524" r="3.524" transform="translate(1426.726 285.444) rotate(180)" fill="#70c217"/><circle cx="3.524" cy="3.524" r="3.524" transform="translate(1375.047 285.444) rotate(180)" fill="#70c217"/><circle cx="3.524" cy="3.524" r="3.524" transform="translate(1581.764 233.764) rotate(180)" fill="#70c217"/><circle cx="3.524" cy="3.524" r="3.524" transform="translate(1530.085 233.764) rotate(180)" fill="#70c217"/><circle cx="3.524" cy="3.524" r="3.524" transform="translate(1478.406 233.764) rotate(180)" fill="#70c217"/><circle cx="3.524" cy="3.524" r="3.524" transform="translate(1426.726 233.764) rotate(180)" fill="#70c217"/><circle cx="3.524" cy="3.524" r="3.524" transform="translate(1375.047 233.764) rotate(180)" fill="#70c217"/><circle cx="3.524" cy="3.524" r="3.524" transform="translate(1581.764 182.085) rotate(180)" fill="#70c217"/><circle cx="3.524" cy="3.524" r="3.524" transform="translate(1530.085 182.085) rotate(180)" fill="#70c217"/><circle cx="3.524" cy="3.524" r="3.524" transform="translate(1478.406 182.085) rotate(180)" fill="#70c217"/><circle cx="3.524" cy="3.524" r="3.524" transform="translate(1426.726 182.085) rotate(180)" fill="#70c217"/><circle cx="3.524" cy="3.524" r="3.524" transform="translate(1375.047 182.085) rotate(180)" fill="#70c217"/><circle cx="3.524" cy="3.524" r="3.524" transform="translate(1581.764 130.406) rotate(180)" fill="#70c217"/><circle cx="3.524" cy="3.524" r="3.524" transform="translate(1530.085 130.406) rotate(180)" fill="#70c217"/><circle cx="3.524" cy="3.524" r="3.524" transform="translate(1478.406 130.406) rotate(180)" fill="#70c217"/><circle cx="3.524" cy="3.524" r="3.524" transform="translate(1426.726 130.406) rotate(180)" fill="#70c217"/><circle cx="3.524" cy="3.524" r="3.524" transform="translate(1375.047 130.406) rotate(180)" fill="#70c217"/><circle cx="3.524" cy="3.524" r="3.524" transform="translate(1581.764 78.727) rotate(180)" fill="#70c217"/><circle cx="3.524" cy="3.524" r="3.524" transform="translate(1530.085 78.727) rotate(180)" fill="#70c217"/><circle cx="3.524" cy="3.524" r="3.524" transform="translate(1478.406 78.727) rotate(180)" fill="#70c217"/><circle cx="3.524" cy="3.524" r="3.524" transform="translate(1426.726 78.727) rotate(180)" fill="#70c217"/><circle cx="3.524" cy="3.524" r="3.524" transform="translate(1375.047 78.727) rotate(180)" fill="#70c217"/><circle cx="3.524" cy="3.524" r="3.524" transform="translate(1581.764 27.048) rotate(180)" fill="#70c217"/><circle cx="3.524" cy="3.524" r="3.524" transform="translate(1530.085 27.048) rotate(180)" fill="#70c217"/><circle cx="3.524" cy="3.524" r="3.524" transform="translate(1478.406 27.048) rotate(180)" fill="#70c217"/><circle cx="3.524" cy="3.524" r="3.524" transform="translate(1426.726 27.048) rotate(180)" fill="#70c217"/><circle cx="3.524" cy="3.524" r="3.524" transform="translate(1375.047 27.048) rotate(180)" fill="#70c217"/><circle cx="3.524" cy="3.524" r="3.524" transform="translate(2402.997 609.764) rotate(-90)" fill="#70c217"/><circle cx="3.524" cy="3.524" r="3.524" transform="translate(2402.997 558.085) rotate(-90)" fill="#70c217"/><circle cx="3.524" cy="3.524" r="3.524" transform="translate(2402.996 506.406) rotate(-90)" fill="#70c217"/><circle cx="3.524" cy="3.524" r="3.524" transform="translate(2402.997 454.727) rotate(-90)" fill="#70c217"/><circle cx="3.524" cy="3.524" r="3.524" transform="translate(2402.997 403.047) rotate(-90)" fill="#70c217"/><circle cx="3.524" cy="3.524" r="3.524" transform="translate(2454.676 609.764) rotate(-90)" fill="#70c217"/><circle cx="3.524" cy="3.524" r="3.524" transform="translate(2454.676 558.085) rotate(-90)" fill="#70c217"/><circle cx="3.524" cy="3.524" r="3.524" transform="translate(2454.676 506.406) rotate(-90)" fill="#70c217"/><circle cx="3.524" cy="3.524" r="3.524" transform="translate(2454.676 454.726) rotate(-90)" fill="#70c217"/><circle cx="3.524" cy="3.524" r="3.524" transform="translate(2454.676 403.047) rotate(-90)" fill="#70c217"/><circle cx="3.524" cy="3.524" r="3.524" transform="translate(2506.356 609.764) rotate(-90)" fill="#70c217"/><circle cx="3.524" cy="3.524" r="3.524" transform="translate(2506.356 558.084) rotate(-90)" fill="#70c217"/><circle cx="3.524" cy="3.524" r="3.524" transform="translate(2506.356 506.406) rotate(-90)" fill="#70c217"/><circle cx="3.524" cy="3.524" r="3.524" transform="translate(2506.356 454.727) rotate(-90)" fill="#70c217"/><circle cx="3.524" cy="3.524" r="3.524" transform="translate(2506.356 403.048) rotate(-90)" fill="#70c217"/><circle cx="3.524" cy="3.524" r="3.524" transform="translate(2558.037 609.764) rotate(-90)" fill="#70c217"/><circle cx="3.524" cy="3.524" r="3.524" transform="translate(2558.037 558.085) rotate(-90)" fill="#70c217"/><circle cx="3.524" cy="3.524" r="3.524" transform="translate(2558.037 506.406) rotate(-90)" fill="#70c217"/><circle cx="3.524" cy="3.524" r="3.524" transform="translate(2558.037 454.727) rotate(-90)" fill="#70c217"/><circle cx="3.524" cy="3.524" r="3.524" transform="translate(2558.037 403.048) rotate(-90)" fill="#70c217"/><circle cx="3.524" cy="3.524" r="3.524" transform="translate(2609.716 609.764) rotate(-90)" fill="#70c217"/><circle cx="3.524" cy="3.524" r="3.524" transform="translate(2609.716 558.085) rotate(-90)" fill="#70c217"/><circle cx="3.524" cy="3.524" r="3.524" transform="translate(2609.716 506.406) rotate(-90)" fill="#70c217"/><circle cx="3.524" cy="3.524" r="3.524" transform="translate(2609.716 454.726) rotate(-90)" fill="#70c217"/><circle cx="3.524" cy="3.524" r="3.524" transform="translate(2609.716 403.047) rotate(-90)" fill="#70c217"/><circle cx="3.524" cy="3.524" r="3.524" transform="translate(2661.396 609.764) rotate(-90)" fill="#70c217"/><circle cx="3.524" cy="3.524" r="3.524" transform="translate(2661.396 558.085) rotate(-90)" fill="#70c217"/><circle cx="3.524" cy="3.524" r="3.524" transform="translate(2661.396 506.406) rotate(-90)" fill="#70c217"/><circle cx="3.524" cy="3.524" r="3.524" transform="translate(2661.396 454.727) rotate(-90)" fill="#70c217"/><circle cx="3.524" cy="3.524" r="3.524" transform="translate(2661.396 403.048) rotate(-90)" fill="#70c217"/><circle cx="3.524" cy="3.524" r="3.524" transform="translate(2713.076 609.763) rotate(-90)" fill="#70c217"/><circle cx="3.524" cy="3.524" r="3.524" transform="translate(2713.076 558.084) rotate(-90)" fill="#70c217"/><circle cx="3.524" cy="3.524" r="3.524" transform="translate(2713.076 506.406) rotate(-90)" fill="#70c217"/><circle cx="3.524" cy="3.524" r="3.524" transform="translate(2713.076 454.727) rotate(-90)" fill="#70c217"/><circle cx="3.524" cy="3.524" r="3.524" transform="translate(2713.076 403.048) rotate(-90)" fill="#70c217"/><circle cx="3.524" cy="3.524" r="3.524" transform="translate(2764.756 609.764) rotate(-90)" fill="#70c217"/><circle cx="3.524" cy="3.524" r="3.524" transform="translate(2764.756 558.085) rotate(-90)" fill="#70c217"/><circle cx="3.524" cy="3.524" r="3.524" transform="translate(2764.756 506.406) rotate(-90)" fill="#70c217"/><circle cx="3.524" cy="3.524" r="3.524" transform="translate(2764.756 454.726) rotate(-90)" fill="#70c217"/><circle cx="3.524" cy="3.524" r="3.524" transform="translate(2764.756 403.047) rotate(-90)" fill="#70c217"/><circle cx="3.524" cy="3.524" r="3.524" transform="translate(2816.437 609.764) rotate(-90)" fill="#70c217"/><circle cx="3.524" cy="3.524" r="3.524" transform="translate(2816.437 558.085) rotate(-90)" fill="#70c217"/><circle cx="3.524" cy="3.524" r="3.524" transform="translate(2816.436 506.406) rotate(-90)" fill="#70c217"/><circle cx="3.524" cy="3.524" r="3.524" transform="translate(2816.437 454.727) rotate(-90)" fill="#70c217"/><circle cx="3.524" cy="3.524" r="3.524" transform="translate(2816.437 403.047) rotate(-90)" fill="#70c217"/><circle cx="3.524" cy="3.524" r="3.524" transform="translate(2868.116 609.763) rotate(-90)" fill="#70c217"/><circle cx="3.524" cy="3.524" r="3.524" transform="translate(2868.116 558.084) rotate(-90)" fill="#70c217"/><circle cx="3.524" cy="3.524" r="3.524" transform="translate(2868.116 506.406) rotate(-90)" fill="#70c217"/><circle cx="3.524" cy="3.524" r="3.524" transform="translate(2868.116 454.727) rotate(-90)" fill="#70c217"/><circle cx="3.524" cy="3.524" r="3.524" transform="translate(2868.116 403.048) rotate(-90)" fill="#70c217"/><circle cx="198" cy="198" r="198" transform="translate(1357.5 -181.5)" fill="none" stroke="#ffba49" stroke-width="5"/><circle cx="128.5" cy="128.5" r="128.5" transform="translate(2561.5 182.5)" fill="none" stroke="#ffba49" stroke-width="5"/><circle cx="30" cy="30" r="30" transform="translate(1337.5 -226.5)" fill="none" stroke="#ffba49" stroke-width="5"/><circle cx="30" cy="30" r="30" transform="translate(2356.5 160.5)" fill="none" stroke="#ffba49" stroke-width="5"/></g></svg>