<svg xmlns="http://www.w3.org/2000/svg" width="978.361" height="494.961" viewBox="0 0 978.361 494.961"><g transform="translate(-1829.802 -1226)"><circle cx="3.524" cy="3.524" r="3.524" transform="translate(2301.963 1507.198) rotate(90)" fill="#70c217"/><circle cx="3.524" cy="3.524" r="3.524" transform="translate(2301.963 1558.877) rotate(90)" fill="#70c217"/><circle cx="3.524" cy="3.524" r="3.524" transform="translate(2301.963 1610.556) rotate(90)" fill="#70c217"/><circle cx="3.524" cy="3.524" r="3.524" transform="translate(2301.963 1662.235) rotate(90)" fill="#70c217"/><circle cx="3.524" cy="3.524" r="3.524" transform="translate(2301.962 1713.914) rotate(90)" fill="#70c217"/><circle cx="3.524" cy="3.524" r="3.524" transform="translate(2250.283 1507.198) rotate(90)" fill="#70c217"/><circle cx="3.524" cy="3.524" r="3.524" transform="translate(2250.284 1558.877) rotate(90)" fill="#70c217"/><circle cx="3.524" cy="3.524" r="3.524" transform="translate(2250.284 1610.556) rotate(90)" fill="#70c217"/><circle cx="3.524" cy="3.524" r="3.524" transform="translate(2250.284 1662.235) rotate(90)" fill="#70c217"/><circle cx="3.524" cy="3.524" r="3.524" transform="translate(2250.284 1713.914) rotate(90)" fill="#70c217"/><circle cx="3.524" cy="3.524" r="3.524" transform="translate(2198.604 1507.198) rotate(90)" fill="#70c217"/><circle cx="3.524" cy="3.524" r="3.524" transform="translate(2198.604 1558.877) rotate(90)" fill="#70c217"/><circle cx="3.524" cy="3.524" r="3.524" transform="translate(2198.604 1610.556) rotate(90)" fill="#70c217"/><circle cx="3.524" cy="3.524" r="3.524" transform="translate(2198.604 1662.235) rotate(90)" fill="#70c217"/><circle cx="3.524" cy="3.524" r="3.524" transform="translate(2198.604 1713.914) rotate(90)" fill="#70c217"/><circle cx="3.524" cy="3.524" r="3.524" transform="translate(2146.925 1507.198) rotate(90)" fill="#70c217"/><circle cx="3.524" cy="3.524" r="3.524" transform="translate(2146.925 1558.877) rotate(90)" fill="#70c217"/><circle cx="3.524" cy="3.524" r="3.524" transform="translate(2146.925 1610.556) rotate(90)" fill="#70c217"/><circle cx="3.524" cy="3.524" r="3.524" transform="translate(2146.925 1662.235) rotate(90)" fill="#70c217"/><circle cx="3.524" cy="3.524" r="3.524" transform="translate(2146.925 1713.914) rotate(90)" fill="#70c217"/><circle cx="3.524" cy="3.524" r="3.524" transform="translate(2095.246 1507.198) rotate(90)" fill="#70c217"/><circle cx="3.524" cy="3.524" r="3.524" transform="translate(2095.246 1558.877) rotate(90)" fill="#70c217"/><circle cx="3.524" cy="3.524" r="3.524" transform="translate(2095.246 1610.556) rotate(90)" fill="#70c217"/><circle cx="3.524" cy="3.524" r="3.524" transform="translate(2095.246 1662.235) rotate(90)" fill="#70c217"/><circle cx="3.524" cy="3.524" r="3.524" transform="translate(2095.246 1713.914) rotate(90)" fill="#70c217"/><circle cx="3.524" cy="3.524" r="3.524" transform="translate(2043.567 1507.198) rotate(90)" fill="#70c217"/><circle cx="3.524" cy="3.524" r="3.524" transform="translate(2043.567 1558.877) rotate(90)" fill="#70c217"/><circle cx="3.524" cy="3.524" r="3.524" transform="translate(2043.567 1610.556) rotate(90)" fill="#70c217"/><circle cx="3.524" cy="3.524" r="3.524" transform="translate(2043.567 1662.235) rotate(90)" fill="#70c217"/><circle cx="3.524" cy="3.524" r="3.524" transform="translate(2043.567 1713.914) rotate(90)" fill="#70c217"/><circle cx="3.524" cy="3.524" r="3.524" transform="translate(1991.887 1507.198) rotate(90)" fill="#70c217"/><circle cx="3.524" cy="3.524" r="3.524" transform="translate(1991.888 1558.877) rotate(90)" fill="#70c217"/><circle cx="3.524" cy="3.524" r="3.524" transform="translate(1991.888 1610.556) rotate(90)" fill="#70c217"/><circle cx="3.524" cy="3.524" r="3.524" transform="translate(1991.888 1662.235) rotate(90)" fill="#70c217"/><circle cx="3.524" cy="3.524" r="3.524" transform="translate(1991.888 1713.914) rotate(90)" fill="#70c217"/><circle cx="3.524" cy="3.524" r="3.524" transform="translate(1940.208 1507.198) rotate(90)" fill="#70c217"/><circle cx="3.524" cy="3.524" r="3.524" transform="translate(1940.208 1558.877) rotate(90)" fill="#70c217"/><circle cx="3.524" cy="3.524" r="3.524" transform="translate(1940.208 1610.556) rotate(90)" fill="#70c217"/><circle cx="3.524" cy="3.524" r="3.524" transform="translate(1940.208 1662.235) rotate(90)" fill="#70c217"/><circle cx="3.524" cy="3.524" r="3.524" transform="translate(1940.208 1713.914) rotate(90)" fill="#70c217"/><circle cx="3.524" cy="3.524" r="3.524" transform="translate(1888.529 1507.198) rotate(90)" fill="#70c217"/><circle cx="3.524" cy="3.524" r="3.524" transform="translate(1888.529 1558.877) rotate(90)" fill="#70c217"/><circle cx="3.524" cy="3.524" r="3.524" transform="translate(1888.529 1610.556) rotate(90)" fill="#70c217"/><circle cx="3.524" cy="3.524" r="3.524" transform="translate(1888.529 1662.235) rotate(90)" fill="#70c217"/><circle cx="3.524" cy="3.524" r="3.524" transform="translate(1888.529 1713.914) rotate(90)" fill="#70c217"/><circle cx="3.524" cy="3.524" r="3.524" transform="translate(1836.85 1507.198) rotate(90)" fill="#70c217"/><circle cx="3.524" cy="3.524" r="3.524" transform="translate(1836.85 1558.877) rotate(90)" fill="#70c217"/><circle cx="3.524" cy="3.524" r="3.524" transform="translate(1836.85 1610.556) rotate(90)" fill="#70c217"/><circle cx="3.524" cy="3.524" r="3.524" transform="translate(1836.85 1662.235) rotate(90)" fill="#70c217"/><circle cx="3.524" cy="3.524" r="3.524" transform="translate(1836.849 1713.914) rotate(90)" fill="#70c217"/><circle cx="3.524" cy="3.524" r="3.524" transform="translate(2808.164 1226) rotate(90)" fill="#ef4358"/><circle cx="3.524" cy="3.524" r="3.524" transform="translate(2808.164 1277.679) rotate(90)" fill="#ef4358"/><circle cx="3.524" cy="3.524" r="3.524" transform="translate(2808.164 1329.358) rotate(90)" fill="#ef4358"/><circle cx="3.524" cy="3.524" r="3.524" transform="translate(2808.164 1381.037) rotate(90)" fill="#ef4358"/><circle cx="3.524" cy="3.524" r="3.524" transform="translate(2808.164 1432.716) rotate(90)" fill="#ef4358"/><circle cx="3.524" cy="3.524" r="3.524" transform="translate(2756.483 1226) rotate(90)" fill="#ef4358"/><circle cx="3.524" cy="3.524" r="3.524" transform="translate(2756.483 1277.679) rotate(90)" fill="#ef4358"/><circle cx="3.524" cy="3.524" r="3.524" transform="translate(2756.484 1329.358) rotate(90)" fill="#ef4358"/><circle cx="3.524" cy="3.524" r="3.524" transform="translate(2756.484 1381.037) rotate(90)" fill="#ef4358"/><circle cx="3.524" cy="3.524" r="3.524" transform="translate(2756.483 1432.716) rotate(90)" fill="#ef4358"/><circle cx="3.524" cy="3.524" r="3.524" transform="translate(2704.804 1226) rotate(90)" fill="#ef4358"/><circle cx="3.524" cy="3.524" r="3.524" transform="translate(2704.804 1277.679) rotate(90)" fill="#ef4358"/><circle cx="3.524" cy="3.524" r="3.524" transform="translate(2704.804 1329.358) rotate(90)" fill="#ef4358"/><circle cx="3.524" cy="3.524" r="3.524" transform="translate(2704.804 1381.037) rotate(90)" fill="#ef4358"/><circle cx="3.524" cy="3.524" r="3.524" transform="translate(2704.804 1432.716) rotate(90)" fill="#ef4358"/><circle cx="3.524" cy="3.524" r="3.524" transform="translate(2653.124 1226) rotate(90)" fill="#ef4358"/><circle cx="3.524" cy="3.524" r="3.524" transform="translate(2653.124 1277.679) rotate(90)" fill="#ef4358"/><circle cx="3.524" cy="3.524" r="3.524" transform="translate(2653.124 1329.358) rotate(90)" fill="#ef4358"/><circle cx="3.524" cy="3.524" r="3.524" transform="translate(2653.124 1381.037) rotate(90)" fill="#ef4358"/><circle cx="3.524" cy="3.524" r="3.524" transform="translate(2653.124 1432.716) rotate(90)" fill="#ef4358"/><circle cx="3.524" cy="3.524" r="3.524" transform="translate(2601.444 1226) rotate(90)" fill="#ef4358"/><circle cx="3.524" cy="3.524" r="3.524" transform="translate(2601.444 1277.679) rotate(90)" fill="#ef4358"/><circle cx="3.524" cy="3.524" r="3.524" transform="translate(2601.444 1329.358) rotate(90)" fill="#ef4358"/><circle cx="3.524" cy="3.524" r="3.524" transform="translate(2601.444 1381.037) rotate(90)" fill="#ef4358"/><circle cx="3.524" cy="3.524" r="3.524" transform="translate(2601.444 1432.716) rotate(90)" fill="#ef4358"/><circle cx="3.524" cy="3.524" r="3.524" transform="translate(2549.764 1226) rotate(90)" fill="#ef4358"/><circle cx="3.524" cy="3.524" r="3.524" transform="translate(2549.764 1277.679) rotate(90)" fill="#ef4358"/><circle cx="3.524" cy="3.524" r="3.524" transform="translate(2549.764 1329.358) rotate(90)" fill="#ef4358"/><circle cx="3.524" cy="3.524" r="3.524" transform="translate(2549.764 1381.037) rotate(90)" fill="#ef4358"/><circle cx="3.524" cy="3.524" r="3.524" transform="translate(2549.764 1432.716) rotate(90)" fill="#ef4358"/><circle cx="3.524" cy="3.524" r="3.524" transform="translate(2498.083 1226) rotate(90)" fill="#ef4358"/><circle cx="3.524" cy="3.524" r="3.524" transform="translate(2498.083 1277.679) rotate(90)" fill="#ef4358"/><circle cx="3.524" cy="3.524" r="3.524" transform="translate(2498.084 1329.358) rotate(90)" fill="#ef4358"/><circle cx="3.524" cy="3.524" r="3.524" transform="translate(2498.083 1381.037) rotate(90)" fill="#ef4358"/><circle cx="3.524" cy="3.524" r="3.524" transform="translate(2498.083 1432.716) rotate(90)" fill="#ef4358"/><circle cx="3.524" cy="3.524" r="3.524" transform="translate(2446.404 1226) rotate(90)" fill="#ef4358"/><circle cx="3.524" cy="3.524" r="3.524" transform="translate(2446.404 1277.679) rotate(90)" fill="#ef4358"/><circle cx="3.524" cy="3.524" r="3.524" transform="translate(2446.404 1329.358) rotate(90)" fill="#ef4358"/><circle cx="3.524" cy="3.524" r="3.524" transform="translate(2446.404 1381.037) rotate(90)" fill="#ef4358"/><circle cx="3.524" cy="3.524" r="3.524" transform="translate(2446.404 1432.716) rotate(90)" fill="#ef4358"/><circle cx="3.524" cy="3.524" r="3.524" transform="translate(2394.724 1226) rotate(90)" fill="#ef4358"/><circle cx="3.524" cy="3.524" r="3.524" transform="translate(2394.724 1277.679) rotate(90)" fill="#ef4358"/><circle cx="3.524" cy="3.524" r="3.524" transform="translate(2394.724 1329.358) rotate(90)" fill="#ef4358"/><circle cx="3.524" cy="3.524" r="3.524" transform="translate(2394.724 1381.037) rotate(90)" fill="#ef4358"/><circle cx="3.524" cy="3.524" r="3.524" transform="translate(2394.724 1432.716) rotate(90)" fill="#ef4358"/><circle cx="3.524" cy="3.524" r="3.524" transform="translate(2343.048 1226) rotate(90)" fill="#ef4358"/><circle cx="3.524" cy="3.524" r="3.524" transform="translate(2343.048 1277.679) rotate(90)" fill="#ef4358"/><circle cx="3.524" cy="3.524" r="3.524" transform="translate(2343.048 1329.358) rotate(90)" fill="#ef4358"/><circle cx="3.524" cy="3.524" r="3.524" transform="translate(2343.048 1381.037) rotate(90)" fill="#ef4358"/><circle cx="3.524" cy="3.524" r="3.524" transform="translate(2343.047 1432.716) rotate(90)" fill="#ef4358"/></g></svg>