<svg xmlns="http://www.w3.org/2000/svg" width="1692.964" height="381.084" viewBox="0 0 1692.964 381.084"><g transform="translate(-1190 -1792.616)"><circle cx="3.524" cy="3.524" r="3.524" transform="translate(1455.443 2011.616) rotate(90)" fill="#70c217"/><circle cx="3.524" cy="3.524" r="3.524" transform="translate(1455.443 2063.295) rotate(90)" fill="#70c217"/><circle cx="3.524" cy="3.524" r="3.524" transform="translate(1455.443 2114.974) rotate(90)" fill="#70c217"/><circle cx="3.524" cy="3.524" r="3.524" transform="translate(1455.443 2166.653) rotate(90)" fill="#70c217"/><circle cx="3.524" cy="3.524" r="3.524" transform="translate(1403.764 2011.616) rotate(90)" fill="#70c217"/><circle cx="3.524" cy="3.524" r="3.524" transform="translate(1403.764 2063.295) rotate(90)" fill="#70c217"/><circle cx="3.524" cy="3.524" r="3.524" transform="translate(1403.764 2114.974) rotate(90)" fill="#70c217"/><circle cx="3.524" cy="3.524" r="3.524" transform="translate(1403.764 2166.653) rotate(90)" fill="#70c217"/><circle cx="3.524" cy="3.524" r="3.524" transform="translate(1352.084 2011.616) rotate(90)" fill="#70c217"/><circle cx="3.524" cy="3.524" r="3.524" transform="translate(1352.084 2063.295) rotate(90)" fill="#70c217"/><circle cx="3.524" cy="3.524" r="3.524" transform="translate(1352.084 2114.974) rotate(90)" fill="#70c217"/><circle cx="3.524" cy="3.524" r="3.524" transform="translate(1352.084 2166.653) rotate(90)" fill="#70c217"/><circle cx="3.524" cy="3.524" r="3.524" transform="translate(1300.405 2011.616) rotate(90)" fill="#70c217"/><circle cx="3.524" cy="3.524" r="3.524" transform="translate(1300.405 2063.295) rotate(90)" fill="#70c217"/><circle cx="3.524" cy="3.524" r="3.524" transform="translate(1300.405 2114.974) rotate(90)" fill="#70c217"/><circle cx="3.524" cy="3.524" r="3.524" transform="translate(1300.405 2166.653) rotate(90)" fill="#70c217"/><circle cx="3.524" cy="3.524" r="3.524" transform="translate(1248.726 2011.616) rotate(90)" fill="#70c217"/><circle cx="3.524" cy="3.524" r="3.524" transform="translate(1248.726 2063.295) rotate(90)" fill="#70c217"/><circle cx="3.524" cy="3.524" r="3.524" transform="translate(1248.726 2114.974) rotate(90)" fill="#70c217"/><circle cx="3.524" cy="3.524" r="3.524" transform="translate(1248.726 2166.653) rotate(90)" fill="#70c217"/><circle cx="3.524" cy="3.524" r="3.524" transform="translate(1197.047 2011.616) rotate(90)" fill="#70c217"/><circle cx="3.524" cy="3.524" r="3.524" transform="translate(1197.047 2063.295) rotate(90)" fill="#70c217"/><circle cx="3.524" cy="3.524" r="3.524" transform="translate(1197.047 2114.974) rotate(90)" fill="#70c217"/><circle cx="3.524" cy="3.524" r="3.524" transform="translate(1197.047 2166.653) rotate(90)" fill="#70c217"/><circle cx="28.089" cy="28.089" r="28.089" transform="translate(1225.665 1829.711) rotate(16.089)" fill="none" stroke="#ffba49" stroke-width="5"/><circle cx="19" cy="19" r="19" transform="translate(2723.501 1795.116)" fill="none" stroke="#ffba49" stroke-width="5"/><circle cx="3.524" cy="3.524" r="3.524" transform="translate(2882.964 1902.814) rotate(90)" fill="#ef4358"/><circle cx="3.524" cy="3.524" r="3.524" transform="translate(2882.964 1954.493) rotate(90)" fill="#ef4358"/><circle cx="3.524" cy="3.524" r="3.524" transform="translate(2882.964 2006.172) rotate(90)" fill="#ef4358"/><circle cx="3.524" cy="3.524" r="3.524" transform="translate(2882.964 2057.852) rotate(90)" fill="#ef4358"/><circle cx="3.524" cy="3.524" r="3.524" transform="translate(2882.964 2109.53) rotate(90)" fill="#ef4358"/><circle cx="3.524" cy="3.524" r="3.524" transform="translate(2831.284 1902.813) rotate(90)" fill="#ef4358"/><circle cx="3.524" cy="3.524" r="3.524" transform="translate(2831.284 1954.493) rotate(90)" fill="#ef4358"/><circle cx="3.524" cy="3.524" r="3.524" transform="translate(2831.284 2006.172) rotate(90)" fill="#ef4358"/><circle cx="3.524" cy="3.524" r="3.524" transform="translate(2831.284 2057.852) rotate(90)" fill="#ef4358"/><circle cx="3.524" cy="3.524" r="3.524" transform="translate(2831.284 2109.53) rotate(90)" fill="#ef4358"/><circle cx="3.524" cy="3.524" r="3.524" transform="translate(2779.604 1902.813) rotate(90)" fill="#ef4358"/><circle cx="3.524" cy="3.524" r="3.524" transform="translate(2779.604 1954.493) rotate(90)" fill="#ef4358"/><circle cx="3.524" cy="3.524" r="3.524" transform="translate(2779.604 2006.172) rotate(90)" fill="#ef4358"/><circle cx="3.524" cy="3.524" r="3.524" transform="translate(2779.604 2057.852) rotate(90)" fill="#ef4358"/><circle cx="3.524" cy="3.524" r="3.524" transform="translate(2779.604 2109.53) rotate(90)" fill="#ef4358"/><circle cx="3.524" cy="3.524" r="3.524" transform="translate(2727.924 1902.813) rotate(90)" fill="#ef4358"/><circle cx="3.524" cy="3.524" r="3.524" transform="translate(2727.924 1954.493) rotate(90)" fill="#ef4358"/><circle cx="3.524" cy="3.524" r="3.524" transform="translate(2727.924 2006.172) rotate(90)" fill="#ef4358"/><circle cx="3.524" cy="3.524" r="3.524" transform="translate(2727.924 2057.852) rotate(90)" fill="#ef4358"/><circle cx="3.524" cy="3.524" r="3.524" transform="translate(2727.924 2109.53) rotate(90)" fill="#ef4358"/><circle cx="3.524" cy="3.524" r="3.524" transform="translate(2676.244 1902.813) rotate(90)" fill="#ef4358"/><circle cx="3.524" cy="3.524" r="3.524" transform="translate(2676.244 1954.493) rotate(90)" fill="#ef4358"/><circle cx="3.524" cy="3.524" r="3.524" transform="translate(2676.244 2006.172) rotate(90)" fill="#ef4358"/><circle cx="3.524" cy="3.524" r="3.524" transform="translate(2676.244 2057.852) rotate(90)" fill="#ef4358"/><circle cx="3.524" cy="3.524" r="3.524" transform="translate(2676.244 2109.53) rotate(90)" fill="#ef4358"/><circle cx="3.524" cy="3.524" r="3.524" transform="translate(2624.564 1902.813) rotate(90)" fill="#ef4358"/><circle cx="3.524" cy="3.524" r="3.524" transform="translate(2624.564 1954.493) rotate(90)" fill="#ef4358"/><circle cx="3.524" cy="3.524" r="3.524" transform="translate(2624.564 2006.172) rotate(90)" fill="#ef4358"/><circle cx="3.524" cy="3.524" r="3.524" transform="translate(2624.564 2057.852) rotate(90)" fill="#ef4358"/><circle cx="3.524" cy="3.524" r="3.524" transform="translate(2624.564 2109.53) rotate(90)" fill="#ef4358"/><circle cx="3.524" cy="3.524" r="3.524" transform="translate(2572.884 1902.813) rotate(90)" fill="#ef4358"/><circle cx="3.524" cy="3.524" r="3.524" transform="translate(2572.884 1954.493) rotate(90)" fill="#ef4358"/><circle cx="3.524" cy="3.524" r="3.524" transform="translate(2572.884 2006.172) rotate(90)" fill="#ef4358"/><circle cx="3.524" cy="3.524" r="3.524" transform="translate(2572.884 2057.852) rotate(90)" fill="#ef4358"/><circle cx="3.524" cy="3.524" r="3.524" transform="translate(2572.884 2109.53) rotate(90)" fill="#ef4358"/><circle cx="3.524" cy="3.524" r="3.524" transform="translate(2521.204 1954.493) rotate(90)" fill="#ef4358"/><circle cx="3.524" cy="3.524" r="3.524" transform="translate(2521.204 2006.172) rotate(90)" fill="#ef4358"/><circle cx="3.524" cy="3.524" r="3.524" transform="translate(2521.205 2057.851) rotate(90)" fill="#ef4358"/><circle cx="3.524" cy="3.524" r="3.524" transform="translate(2521.204 2109.53) rotate(90)" fill="#ef4358"/><circle cx="3.524" cy="3.524" r="3.524" transform="translate(2469.524 1902.813) rotate(90)" fill="#ef4358"/><circle cx="3.524" cy="3.524" r="3.524" transform="translate(2469.524 1954.493) rotate(90)" fill="#ef4358"/><circle cx="3.524" cy="3.524" r="3.524" transform="translate(2469.524 2006.172) rotate(90)" fill="#ef4358"/><circle cx="3.524" cy="3.524" r="3.524" transform="translate(2469.524 2057.852) rotate(90)" fill="#ef4358"/><circle cx="3.524" cy="3.524" r="3.524" transform="translate(2469.524 2109.53) rotate(90)" fill="#ef4358"/><circle cx="3.524" cy="3.524" r="3.524" transform="translate(2417.854 1902.813) rotate(90)" fill="#ef4358"/><circle cx="3.524" cy="3.524" r="3.524" transform="translate(2417.854 1954.493) rotate(90)" fill="#ef4358"/><circle cx="3.524" cy="3.524" r="3.524" transform="translate(2417.854 2006.172) rotate(90)" fill="#ef4358"/><circle cx="3.524" cy="3.524" r="3.524" transform="translate(2417.854 2057.852) rotate(90)" fill="#ef4358"/><circle cx="3.524" cy="3.524" r="3.524" transform="translate(2417.854 2109.53) rotate(90)" fill="#ef4358"/><g transform="translate(1190.001 1590.616)"><path d="M158,487.044c0-13.637,6.958-26.287,18.913-32.848C244.127,417.312,488.444,300,877,300s632.87,117.312,700.09,154.2c11.95,6.561,18.91,19.211,18.91,32.848V533a40,40,0,0,1-40,40H198a40,40,0,0,1-40-40Z" fill="#eee"/></g><circle cx="14.5" cy="14.5" r="14.5" transform="translate(1303.501 1957.116)" fill="none" stroke="#ffba49" stroke-width="5"/></g></svg>